# xmcd
#
# Track frame offsets: 
#        150
#        11450
#        27828
#        39592
#        51327
#        66557
#        98956
#        115221
#        126139
#        139359
#        150126
#        203366
#        215814
#        227527
#
# Disc length: 3195 seconds
#
# Revision: 0
# Processed by: cddbd v1.5.2PL0 Copyright (c) Steve Scherf et al.
# Submitted via: ExactAudioCopy v0.95b3
#
DISCID=be0c790e
DTITLE=The Doors  - Perception Box Set - Disc 1
DYEAR=1900
DGENRE=
TTITLE0=Break On Through (To The Other Side)
TTITLE1=Soul Kitchen
TTITLE2=The Crystal Ship
TTITLE3=Twentieth Century Fox
TTITLE4=Alabama Son (Whisky Bar)
TTITLE5=Light My Fire
TTITLE6=Back Door Man
TTITLE7=I Looked At You
TTITLE8=End Of The Night
TTITLE9=Take It As It Comes
TTITLE10=The End
TTITLE11=Moonlight Drive (Bonus Track Version 1)
TTITLE12=Moonlight Drive (Previously Unreleased Bonus Track Version 2)
TTITLE13=Indian Summer (Previously Unreleaseed Bonus Track 8 19 66 Voc
TTITLE13=al)
EXTD=
EXTT0=
EXTT1=
EXTT2=
EXTT3=
EXTT4=
EXTT5=
EXTT6=
EXTT7=
EXTT8=
EXTT9=
EXTT10=
EXTT11=
EXTT12=
EXTT13=
PLAYORDER=
